<?xml version="1.0" standalone="no"?>
<!DOCTYPE svg PUBLIC "-//W3C//DTD SVG 20010904//EN"
 "http://www.w3.org/TR/2001/REC-SVG-20010904/DTD/svg10.dtd">
<svg version="1.0" xmlns="http://www.w3.org/2000/svg"
 width="512.000000pt" height="512.000000pt" viewBox="0 0 512.000000 512.000000"
 preserveAspectRatio="xMidYMid meet">
<metadata>
Created by potrace 1.11, written by Peter Selinger 2001-2013
</metadata>
<g transform="translate(0.000000,512.000000) scale(0.100000,-0.100000)"
fill="#000000" stroke="none">
<path d="M2585 4144 c-76 -13 -160 -40 -219 -71 l-37 -19 41 -33 c56 -45 52
-71 -20 -129 -128 -103 -154 -131 -185 -207 l-23 -57 -98 -2 c-114 -2 -128 -5
-209 -46 -65 -32 -115 -74 -158 -131 -26 -35 -30 -37 -102 -41 -61 -4 -80 -10
-111 -33 -65 -50 -80 -120 -42 -195 25 -47 70 -77 126 -83 18 -2 34 -6 36 -8
2 -2 7 -33 10 -69 3 -36 8 -83 11 -105 2 -22 20 -182 40 -355 42 -377 43 -387
49 -425 3 -16 8 -61 11 -100 4 -38 8 -77 10 -85 4 -14 8 -42 20 -152 6 -57 25
-215 30 -253 2 -16 9 -75 15 -130 19 -181 25 -208 55 -270 33 -67 88 -123 155
-154 l55 -26 495 1 495 0 50 27 c123 66 178 162 200 348 3 25 8 56 10 70 3 13
7 45 10 70 3 25 7 55 9 66 3 11 7 44 11 74 3 30 8 65 10 79 5 37 16 112 20
140 8 50 85 591 115 810 17 124 33 239 36 255 16 111 24 172 24 182 0 8 9 11
23 9 28 -4 91 18 116 41 74 71 64 182 -21 246 -19 14 -48 21 -102 25 -83 5
-77 -1 -91 92 -13 89 -30 142 -75 235 -145 300 -470 467 -795 409z"/>
</g>
</svg>
